<svg width="36" height="16" viewBox="0 0 36 16" fill="none" xmlns="http://www.w3.org/2000/svg">
<path d="M1.4 0.799999V10.944H6.52V12H0.28V0.799999H1.4ZM14.2615 10.992C13.4402 11.792 12.4482 12.192 11.2855 12.192C10.1015 12.192 9.10417 11.792 8.2935 10.992C7.48283 10.1813 7.0775 9.184 7.0775 8C7.0775 6.816 7.48283 5.824 8.2935 5.024C9.10417 4.21333 10.1015 3.808 11.2855 3.808C12.4588 3.808 13.4508 4.21333 14.2615 5.024C15.0828 5.824 15.4935 6.816 15.4935 8C15.4935 9.17333 15.0828 10.1707 14.2615 10.992ZM9.0455 10.256C9.6535 10.864 10.4002 11.168 11.2855 11.168C12.1708 11.168 12.9175 10.864 13.5255 10.256C14.1335 9.62667 14.4375 8.87467 14.4375 8C14.4375 7.11467 14.1335 6.368 13.5255 5.76C12.9175 5.14133 12.1708 4.832 11.2855 4.832C10.4002 4.832 9.6535 5.14133 9.0455 5.76C8.4375 6.368 8.1335 7.11467 8.1335 8C8.1335 8.87467 8.4375 9.62667 9.0455 10.256ZM24.1406 5.568V4H25.1966V11.68C25.1966 12.832 24.802 13.7387 24.0126 14.4C23.2233 15.0613 22.2793 15.392 21.1806 15.392C19.314 15.392 18.05 14.7413 17.3886 13.44L18.3166 12.912C18.7966 13.8827 19.7513 14.368 21.1806 14.368C22.098 14.368 22.818 14.128 23.3406 13.648C23.874 13.168 24.1406 12.512 24.1406 11.68V10.432C23.4046 11.6053 22.3273 12.192 20.9086 12.192C19.7673 12.192 18.7913 11.7867 17.9806 10.976C17.1806 10.1653 16.7806 9.17333 16.7806 8C16.7806 6.82667 17.1806 5.83467 17.9806 5.024C18.7913 4.21333 19.7673 3.808 20.9086 3.808C22.3273 3.808 23.4046 4.39467 24.1406 5.568ZM18.7486 10.256C19.3566 10.864 20.1033 11.168 20.9886 11.168C21.874 11.168 22.6206 10.864 23.2286 10.256C23.8366 9.62667 24.1406 8.87467 24.1406 8C24.1406 7.11467 23.8366 6.368 23.2286 5.76C22.6206 5.14133 21.874 4.832 20.9886 4.832C20.1033 4.832 19.3566 5.14133 18.7486 5.76C18.1406 6.368 17.8366 7.11467 17.8366 8C17.8366 8.87467 18.1406 9.62667 18.7486 10.256ZM34.1365 10.992C33.3152 11.792 32.3232 12.192 31.1605 12.192C29.9765 12.192 28.9792 11.792 28.1685 10.992C27.3578 10.1813 26.9525 9.184 26.9525 8C26.9525 6.816 27.3578 5.824 28.1685 5.024C28.9792 4.21333 29.9765 3.808 31.1605 3.808C32.3338 3.808 33.3258 4.21333 34.1365 5.024C34.9578 5.824 35.3685 6.816 35.3685 8C35.3685 9.17333 34.9578 10.1707 34.1365 10.992ZM28.9205 10.256C29.5285 10.864 30.2752 11.168 31.1605 11.168C32.0458 11.168 32.7925 10.864 33.4005 10.256C34.0085 9.62667 34.3125 8.87467 34.3125 8C34.3125 7.11467 34.0085 6.368 33.4005 5.76C32.7925 5.14133 32.0458 4.832 31.1605 4.832C30.2752 4.832 29.5285 5.14133 28.9205 5.76C28.3125 6.368 28.0085 7.11467 28.0085 8C28.0085 8.87467 28.3125 9.62667 28.9205 10.256Z" fill="black"/>
</svg>
