<svg width="40" height="40" viewBox="0 0 40 40" fill="none" xmlns="http://www.w3.org/2000/svg">
<mask id="mask0_30_1220" style="mask-type:alpha" maskUnits="userSpaceOnUse" x="0" y="0" width="40" height="40">
<rect width="40" height="40" fill="#D9D9D9"/>
</mask>
<g mask="url(#mask0_30_1220)">
<path d="M20.0003 26.6666C22.0837 26.6666 23.8545 25.9375 25.3128 24.4791C26.7712 23.0208 27.5003 21.25 27.5003 19.1666C27.5003 17.0833 26.7712 15.3125 25.3128 13.8541C23.8545 12.3958 22.0837 11.6666 20.0003 11.6666C17.917 11.6666 16.1462 12.3958 14.6878 13.8541C13.2295 15.3125 12.5003 17.0833 12.5003 19.1666C12.5003 21.25 13.2295 23.0208 14.6878 24.4791C16.1462 25.9375 17.917 26.6666 20.0003 26.6666ZM20.0045 23.1721C18.8931 23.1721 17.947 22.783 17.1662 22.005C16.3853 21.2269 15.9949 20.2822 15.9949 19.1708C15.9949 18.0594 16.384 17.1133 17.162 16.3325C17.9401 15.5516 18.8848 15.1612 19.9962 15.1612C21.1076 15.1612 22.0537 15.5503 22.8345 16.3283C23.6153 17.1064 24.0058 18.0511 24.0058 19.1625C24.0058 20.2739 23.6167 21.22 22.8387 22.0008C22.0606 22.7816 21.1159 23.1721 20.0045 23.1721ZM20.0003 32.3966C15.7565 32.3966 11.909 31.1862 8.45785 28.7654C5.00673 26.3446 2.49979 23.145 0.937012 19.1666C2.49979 15.1883 5.00673 11.9887 8.45785 9.5679C11.909 7.14706 15.7565 5.93665 20.0003 5.93665C24.2442 5.93665 28.0917 7.14706 31.5428 9.5679C34.994 11.9887 37.5009 15.1883 39.0637 19.1666C37.5009 23.145 34.994 26.3446 31.5428 28.7654C28.0917 31.1862 24.2442 32.3966 20.0003 32.3966Z" fill="#444444"/>
</g>
</svg>
